# xmcd CD database file
#
# Track frame offsets:
#	150
#	14982
#	28868
#	41318
#	54501
#	69448
#	84829
#	95666
#	110020
#	124869
#	137164
#	148423
#	159537
#	173944
#	187925
#	202376
#	217183
#	230879
#
# Disc length: 3230 seconds
#
# Revision: 0
# Processed by: cddbd v1.5.2PL0 Copyright (c) Steve Scherf et al.
# Submitted via: CDex 1.51
#
DISCID=1b0c9c12
DTITLE=Glenn Miller - Masters of Music CD6
DYEAR=2005
DGENRE=Jazz
TTITLE0=Pennsylvania 6-5000
TTITLE1=A Stone's Throw From Heaven
TTITLE2=SAy IT
TTITLE3=Bugle Rag Call
TTITLE4=Moonlight Becomes You
TTITLE5=Sunrise Serenade
TTITLE6=Long Time No See, Baby
TTITLE7=You Are The One
TTITLE8=Humpty Dumpty Heart
TTITLE9=Dear Arabella
TTITLE10=My! My!
TTITLE11=From One Love To Another
TTITLE12=Sleepy Town Train
TTITLE13=Juke Box Saturday Night
TTITLE14=Faithful To You
TTITLE15=Indian Summer
TTITLE16=Baby Mine
TTITLE17=I'll Never Smile Again
EXTD=YEAR: 2005
EXTT0=
EXTT1=
EXTT2=
EXTT3=
EXTT4=
EXTT5=
EXTT6=
EXTT7=
EXTT8=
EXTT9=
EXTT10=
EXTT11=
EXTT12=
EXTT13=
EXTT14=
EXTT15=
EXTT16=
EXTT17=
PLAYORDER=
